<svg width="45" height="50" viewBox="0 0 45 50" fill="none" xmlns="http://www.w3.org/2000/svg">
<path d="M22.4949 49.5404C34.9185 49.5404 44.9898 39.4691 44.9898 27.0455C44.9898 14.6219 34.9185 4.5506 22.4949 4.5506C10.0713 4.5506 0 14.6219 0 27.0455C0 39.4691 10.0713 49.5404 22.4949 49.5404Z" fill="url(#paint0_radial_1_3863)"/>
<g style="mix-blend-mode:screen">
<path d="M22.3932 6.20709C10.8595 6.20709 1.50366 15.5629 1.50366 27.0967C1.50366 31.8922 3.1192 36.3093 5.83904 39.8267C4.07012 36.7592 3.06808 33.2112 3.06808 29.4177C3.06808 17.884 12.4239 8.52816 23.9577 8.52816C30.7061 8.52816 36.6979 11.7286 40.5118 16.6877C36.9024 10.43 30.1437 6.20709 22.3932 6.20709Z" fill="url(#paint1_radial_1_3863)"/>
</g>
<path d="M22.4948 38.7326C18.8241 38.7326 15.3578 37.3114 12.7402 34.7347C12.3721 34.3666 12.3619 33.7735 12.73 33.4054C13.0981 33.0373 13.6911 33.0271 14.0592 33.3952C16.319 35.6243 19.3251 36.8513 22.4948 36.8513C25.6748 36.8513 28.6707 35.6243 30.9304 33.3952C31.2985 33.0271 31.8916 33.0373 32.2597 33.4054C32.6278 33.7735 32.6175 34.3666 32.2494 34.7347C29.6421 37.3114 26.1758 38.7326 22.4948 38.7326Z" fill="url(#paint2_radial_1_3863)"/>
<path d="M17.5044 24.6937C17.2692 24.6937 17.0238 24.6017 16.8398 24.4176C16.0524 23.6303 15.1424 23.2213 14.2222 23.2213C13.2917 23.2213 12.3919 23.6303 11.6046 24.4176C11.2365 24.7857 10.6434 24.7857 10.2753 24.4176C9.90724 24.0495 9.90724 23.4565 10.2753 23.0884C11.4205 21.9534 12.7805 21.3502 14.2222 21.3502C15.6537 21.3502 17.0136 21.9534 18.169 23.0884C18.5371 23.4565 18.5371 24.0495 18.169 24.4176C17.985 24.6017 17.7396 24.6937 17.5044 24.6937Z" fill="url(#paint3_linear_1_3863)"/>
<path d="M27.4937 24.6937C27.2483 24.6937 27.0131 24.6017 26.8291 24.4176C26.461 24.0495 26.461 23.4565 26.8291 23.0884C27.9742 21.9534 29.3342 21.3502 30.7759 21.3502C32.2074 21.3502 33.5673 21.9534 34.7227 23.0884C35.0908 23.4565 35.0908 24.0495 34.7227 24.4176C34.3546 24.7857 33.7616 24.7857 33.3935 24.4176C32.6062 23.6303 31.6961 23.2213 30.7759 23.2213C29.8454 23.2213 28.9456 23.6303 28.1583 24.4176C27.9742 24.6017 27.7391 24.6937 27.4937 24.6937Z" fill="url(#paint4_linear_1_3863)"/>
<path d="M22.4926 0.000488281C13.11 0.000488281 3 1.40611 3 4.50049C3 7.59487 13.11 9.00049 22.4926 9.00049C31.8751 9.00049 42 7.59487 42 4.50049C42 1.40611 31.89 0.000488281 22.4926 0.000488281ZM34.9482 6.13869C31.6376 6.78588 27.2136 7.14993 22.4926 7.14993C17.7716 7.14993 13.3475 6.79599 10.0369 6.13869C6.77084 5.4915 5.71679 4.7533 5.71679 4.50049C5.71679 4.24768 6.77084 3.50948 10.0518 2.86229C13.3624 2.21509 17.7864 1.85105 22.5074 1.85105C27.2284 1.85105 31.6525 2.20498 34.9631 2.86229C38.2292 3.50948 39.2981 4.23757 39.2981 4.50049C39.2832 4.7533 38.2292 5.4915 34.9482 6.13869Z" fill="url(#paint5_radial_1_3863)"/>
<defs>
<radialGradient id="paint0_radial_1_3863" cx="0" cy="0" r="1" gradientUnits="userSpaceOnUse" gradientTransform="translate(17.1678 15.2836) scale(35.2548)">
<stop stop-color="#F7E135"/>
<stop offset="0.5" stop-color="#FCBC27"/>
<stop offset="1" stop-color="#FF7E2C"/>
</radialGradient>
<radialGradient id="paint1_radial_1_3863" cx="0" cy="0" r="1" gradientUnits="userSpaceOnUse" gradientTransform="translate(2.31002 -4.90666) scale(39.0583)">
<stop stop-color="white"/>
<stop offset="1"/>
</radialGradient>
<radialGradient id="paint2_radial_1_3863" cx="0" cy="0" r="1" gradientUnits="userSpaceOnUse" gradientTransform="translate(22.4997 35.9335) scale(7.36688 7.36687)">
<stop stop-color="#372396"/>
<stop offset="1"/>
</radialGradient>
<linearGradient id="paint3_linear_1_3863" x1="10.0023" y1="23.0232" x2="18.4398" y2="23.0232" gradientUnits="userSpaceOnUse">
<stop stop-color="#372396"/>
<stop offset="1"/>
</linearGradient>
<linearGradient id="paint4_linear_1_3863" x1="26.5577" y1="23.0232" x2="34.9951" y2="23.0232" gradientUnits="userSpaceOnUse">
<stop/>
<stop offset="1" stop-color="#372396"/>
</linearGradient>
<radialGradient id="paint5_radial_1_3863" cx="0" cy="0" r="1" gradientUnits="userSpaceOnUse" gradientTransform="translate(22.5677 9.04271) scale(13.6143 9.2735)">
<stop stop-color="#09F5CF"/>
<stop offset="1" stop-color="#00D9FF"/>
</radialGradient>
</defs>
</svg>
