<svg width="102" height="42" viewBox="0 0 102 42" fill="none" xmlns="http://www.w3.org/2000/svg">
<path d="M1.136 26V14.8H2.832V24.656H7.92V26H1.136ZM13.0496 26.192C12.271 26.192 11.5776 26.0213 10.9696 25.68C10.3723 25.328 9.90296 24.8427 9.56163 24.224C9.22029 23.6053 9.04963 22.8853 9.04963 22.064C9.04963 21.232 9.21496 20.5013 9.54563 19.872C9.88696 19.2427 10.3563 18.752 10.9536 18.4C11.5616 18.048 12.2656 17.872 13.0656 17.872C13.8443 17.872 14.5216 18.048 15.0976 18.4C15.6736 18.7413 16.1216 19.2 16.4416 19.776C16.7616 20.352 16.9216 20.9867 16.9216 21.68C16.9216 21.7867 16.9163 21.904 16.9056 22.032C16.9056 22.1493 16.9003 22.2827 16.8896 22.432H10.7136C10.767 23.2 11.0176 23.7867 11.4656 24.192C11.9243 24.5867 12.4523 24.784 13.0496 24.784C13.5296 24.784 13.9296 24.6773 14.2496 24.464C14.5803 24.24 14.8256 23.9413 14.9856 23.568H16.6816C16.4683 24.3147 16.0416 24.9387 15.4016 25.44C14.7723 25.9413 13.9883 26.192 13.0496 26.192ZM13.0496 19.264C12.4843 19.264 11.983 19.4347 11.5456 19.776C11.1083 20.1067 10.8416 20.608 10.7456 21.28H15.2256C15.1936 20.6613 14.975 20.1707 14.5696 19.808C14.1643 19.4453 13.6576 19.264 13.0496 19.264ZM21.3694 26.192C20.6974 26.192 20.1427 26.08 19.7054 25.856C19.268 25.632 18.9427 25.3387 18.7294 24.976C18.516 24.6027 18.4094 24.1973 18.4094 23.76C18.4094 22.992 18.708 22.384 19.3054 21.936C19.9027 21.488 20.756 21.264 21.8654 21.264H23.9454V21.12C23.9454 20.5013 23.7747 20.0373 23.4334 19.728C23.1027 19.4187 22.6707 19.264 22.1374 19.264C21.668 19.264 21.2574 19.3813 20.9054 19.616C20.564 19.84 20.356 20.176 20.2814 20.624H18.5854C18.6387 20.048 18.8307 19.5573 19.1614 19.152C19.5027 18.736 19.9294 18.4213 20.4414 18.208C20.964 17.984 21.5347 17.872 22.1534 17.872C23.2627 17.872 24.1214 18.1653 24.7294 18.752C25.3374 19.328 25.6414 20.1173 25.6414 21.12V26H24.1694L24.0254 24.64C23.8014 25.0773 23.476 25.4453 23.0494 25.744C22.6227 26.0427 22.0627 26.192 21.3694 26.192ZM21.7054 24.816C22.164 24.816 22.548 24.7093 22.8574 24.496C23.1774 24.272 23.4227 23.9787 23.5934 23.616C23.7747 23.2533 23.8867 22.8533 23.9294 22.416H22.0414C21.3694 22.416 20.8894 22.5333 20.6014 22.768C20.324 23.0027 20.1854 23.296 20.1854 23.648C20.1854 24.0107 20.3187 24.2987 20.5854 24.512C20.8627 24.7147 21.236 24.816 21.7054 24.816ZM27.6189 26V18.064H29.1389L29.2829 19.568C29.5602 19.0453 29.9442 18.6347 30.4349 18.336C30.9362 18.0267 31.5389 17.872 32.2429 17.872V19.648H31.7789C31.3095 19.648 30.8882 19.728 30.5149 19.888C30.1522 20.0373 29.8589 20.2987 29.6349 20.672C29.4215 21.0347 29.3149 21.5413 29.3149 22.192V26H27.6189ZM33.697 26V18.064H35.201L35.329 19.456C35.5743 18.9653 35.9317 18.5813 36.401 18.304C36.881 18.016 37.4303 17.872 38.049 17.872C39.009 17.872 39.761 18.1707 40.305 18.768C40.8597 19.3653 41.137 20.256 41.137 21.44V26H39.457V21.616C39.457 20.08 38.8277 19.312 37.569 19.312C36.9397 19.312 36.417 19.536 36.001 19.984C35.5957 20.432 35.393 21.072 35.393 21.904V26H33.697ZM47.1658 26V18.064H48.6698L48.8138 19.184C49.0698 18.7787 49.4058 18.4587 49.8218 18.224C50.2484 17.9893 50.7391 17.872 51.2938 17.872C52.5524 17.872 53.4271 18.368 53.9178 19.36C54.2058 18.9013 54.5898 18.5387 55.0698 18.272C55.5604 18.0053 56.0884 17.872 56.6538 17.872C57.6458 17.872 58.4244 18.1707 58.9898 18.768C59.5551 19.3653 59.8378 20.256 59.8378 21.44V26H58.1418V21.616C58.1418 20.08 57.5551 19.312 56.3818 19.312C55.7844 19.312 55.2938 19.536 54.9097 19.984C54.5364 20.432 54.3498 21.072 54.3498 21.904V26H52.6538V21.616C52.6538 20.08 52.0618 19.312 50.8778 19.312C50.2911 19.312 49.8058 19.536 49.4218 19.984C49.0484 20.432 48.8618 21.072 48.8618 21.904V26H47.1658ZM65.534 26.192C64.7767 26.192 64.094 26.0213 63.486 25.68C62.8887 25.328 62.414 24.8427 62.062 24.224C61.71 23.5947 61.534 22.864 61.534 22.032C61.534 21.2 61.71 20.4747 62.062 19.856C62.4247 19.2267 62.91 18.7413 63.518 18.4C64.126 18.048 64.8033 17.872 65.55 17.872C66.3073 17.872 66.9847 18.048 67.582 18.4C68.19 18.7413 68.67 19.2267 69.022 19.856C69.3847 20.4747 69.566 21.2 69.566 22.032C69.566 22.864 69.3847 23.5947 69.022 24.224C68.67 24.8427 68.19 25.328 67.582 25.68C66.974 26.0213 66.2913 26.192 65.534 26.192ZM65.534 24.736C65.9393 24.736 66.3127 24.6347 66.654 24.432C67.006 24.2293 67.2887 23.9307 67.502 23.536C67.7153 23.1307 67.822 22.6293 67.822 22.032C67.822 21.4347 67.7153 20.9387 67.502 20.544C67.2993 20.1387 67.022 19.8347 66.67 19.632C66.3287 19.4293 65.9553 19.328 65.55 19.328C65.1447 19.328 64.766 19.4293 64.414 19.632C64.0727 19.8347 63.7953 20.1387 63.582 20.544C63.3687 20.9387 63.262 21.4347 63.262 22.032C63.262 22.6293 63.3687 23.1307 63.582 23.536C63.7953 23.9307 64.0727 24.2293 64.414 24.432C64.7553 24.6347 65.1287 24.736 65.534 24.736ZM71.4001 26V18.064H72.9201L73.0641 19.568C73.3415 19.0453 73.7255 18.6347 74.2161 18.336C74.7175 18.0267 75.3201 17.872 76.0241 17.872V19.648H75.5601C75.0908 19.648 74.6695 19.728 74.2961 19.888C73.9335 20.0373 73.6401 20.2987 73.4161 20.672C73.2028 21.0347 73.0961 21.5413 73.0961 22.192V26H71.4001ZM80.9715 26.192C80.1928 26.192 79.4995 26.0213 78.8915 25.68C78.2942 25.328 77.8248 24.8427 77.4835 24.224C77.1422 23.6053 76.9715 22.8853 76.9715 22.064C76.9715 21.232 77.1368 20.5013 77.4675 19.872C77.8088 19.2427 78.2782 18.752 78.8755 18.4C79.4835 18.048 80.1875 17.872 80.9875 17.872C81.7662 17.872 82.4435 18.048 83.0195 18.4C83.5955 18.7413 84.0435 19.2 84.3635 19.776C84.6835 20.352 84.8435 20.9867 84.8435 21.68C84.8435 21.7867 84.8382 21.904 84.8275 22.032C84.8275 22.1493 84.8222 22.2827 84.8115 22.432H78.6355C78.6888 23.2 78.9395 23.7867 79.3875 24.192C79.8462 24.5867 80.3742 24.784 80.9715 24.784C81.4515 24.784 81.8515 24.6773 82.1715 24.464C82.5022 24.24 82.7475 23.9413 82.9075 23.568H84.6035C84.3902 24.3147 83.9635 24.9387 83.3235 25.44C82.6942 25.9413 81.9102 26.192 80.9715 26.192ZM80.9715 19.264C80.4062 19.264 79.9048 19.4347 79.4675 19.776C79.0302 20.1067 78.7635 20.608 78.6675 21.28H83.1475C83.1155 20.6613 82.8968 20.1707 82.4915 19.808C82.0862 19.4453 81.5795 19.264 80.9715 19.264Z" fill="#3183FF"/>
<path d="M101.849 21.8467C101.849 22.0259 101.78 22.2051 101.644 22.3418L97.3439 26.6415C97.0704 26.9151 96.6269 26.9151 96.3535 26.6415C96.0801 26.3681 96.0801 25.9247 96.3535 25.6512L100.158 21.8467L96.3536 18.0422C96.0802 17.7687 96.0802 17.3253 96.3536 17.0519C96.627 16.7783 97.0705 16.7783 97.344 17.0519L101.644 21.3517C101.78 21.4884 101.849 21.6676 101.849 21.8467Z" fill="#4F96FF"/>
</svg>
