<svg width="115" height="42" viewBox="0 0 115 42" fill="none" xmlns="http://www.w3.org/2000/svg">
<path d="M1.136 26.0005V14.8005H8.256V16.1765H2.832V19.6645H7.776V21.0085H2.832V24.6245H8.256V26.0005H1.136ZM9.44463 26.0005L12.2606 22.0325L9.44463 18.0645H11.2526L13.3806 21.1045L15.4926 18.0645H17.3166L14.5006 22.0325L17.3166 26.0005H15.4926L13.3806 22.9605L11.2526 26.0005H9.44463ZM18.697 29.5205V18.0645H20.217L20.393 19.2965C20.649 18.9232 21.001 18.5925 21.449 18.3045C21.897 18.0165 22.473 17.8725 23.177 17.8725C23.945 17.8725 24.6223 18.0538 25.209 18.4165C25.7957 18.7792 26.2543 19.2752 26.585 19.9045C26.9263 20.5338 27.097 21.2485 27.097 22.0485C27.097 22.8485 26.9263 23.5632 26.585 24.1925C26.2543 24.8112 25.7957 25.3018 25.209 25.6645C24.6223 26.0165 23.9397 26.1925 23.161 26.1925C22.5423 26.1925 21.993 26.0698 21.513 25.8245C21.0437 25.5792 20.6703 25.2325 20.393 24.7845V29.5205H18.697ZM22.873 24.7205C23.5983 24.7205 24.1957 24.4752 24.665 23.9845C25.1343 23.4832 25.369 22.8325 25.369 22.0325C25.369 21.5098 25.2623 21.0458 25.049 20.6405C24.8357 20.2352 24.5423 19.9205 24.169 19.6965C23.7957 19.4618 23.3637 19.3445 22.873 19.3445C22.1477 19.3445 21.5503 19.5952 21.081 20.0965C20.6223 20.5978 20.393 21.2432 20.393 22.0325C20.393 22.8325 20.6223 23.4832 21.081 23.9845C21.5503 24.4752 22.1477 24.7205 22.873 24.7205ZM28.9314 26.0005V14.4805H30.6274V26.0005H28.9314ZM36.4871 26.1925C35.7298 26.1925 35.0471 26.0218 34.4391 25.6805C33.8418 25.3285 33.3671 24.8432 33.0151 24.2245C32.6631 23.5952 32.4871 22.8645 32.4871 22.0325C32.4871 21.2005 32.6631 20.4752 33.0151 19.8565C33.3778 19.2272 33.8631 18.7418 34.4711 18.4005C35.0791 18.0485 35.7565 17.8725 36.5031 17.8725C37.2605 17.8725 37.9378 18.0485 38.5351 18.4005C39.1431 18.7418 39.6231 19.2272 39.9751 19.8565C40.3378 20.4752 40.5191 21.2005 40.5191 22.0325C40.5191 22.8645 40.3378 23.5952 39.9751 24.2245C39.6231 24.8432 39.1431 25.3285 38.5351 25.6805C37.9271 26.0218 37.2445 26.1925 36.4871 26.1925ZM36.4871 24.7365C36.8925 24.7365 37.2658 24.6352 37.6071 24.4325C37.9591 24.2298 38.2418 23.9312 38.4551 23.5365C38.6685 23.1312 38.7751 22.6298 38.7751 22.0325C38.7751 21.4352 38.6685 20.9392 38.4551 20.5445C38.2525 20.1392 37.9751 19.8352 37.6231 19.6325C37.2818 19.4298 36.9085 19.3285 36.5031 19.3285C36.0978 19.3285 35.7191 19.4298 35.3671 19.6325C35.0258 19.8352 34.7485 20.1392 34.5351 20.5445C34.3218 20.9392 34.2151 21.4352 34.2151 22.0325C34.2151 22.6298 34.3218 23.1312 34.5351 23.5365C34.7485 23.9312 35.0258 24.2298 35.3671 24.4325C35.7085 24.6352 36.0818 24.7365 36.4871 24.7365ZM42.3533 26.0005V18.0645H43.8733L44.0173 19.5685C44.2946 19.0458 44.6786 18.6352 45.1693 18.3365C45.6706 18.0272 46.2733 17.8725 46.9773 17.8725V19.6485H46.5133C46.0439 19.6485 45.6226 19.7285 45.2493 19.8885C44.8866 20.0378 44.5933 20.2992 44.3693 20.6725C44.1559 21.0352 44.0493 21.5418 44.0493 22.1925V26.0005H42.3533ZM51.9246 26.1925C51.146 26.1925 50.4526 26.0218 49.8446 25.6805C49.2473 25.3285 48.778 24.8432 48.4366 24.2245C48.0953 23.6058 47.9246 22.8858 47.9246 22.0645C47.9246 21.2325 48.09 20.5018 48.4206 19.8725C48.762 19.2432 49.2313 18.7525 49.8286 18.4005C50.4366 18.0485 51.1406 17.8725 51.9406 17.8725C52.7193 17.8725 53.3966 18.0485 53.9726 18.4005C54.5486 18.7418 54.9966 19.2005 55.3166 19.7765C55.6366 20.3525 55.7966 20.9872 55.7966 21.6805C55.7966 21.7872 55.7913 21.9045 55.7806 22.0325C55.7806 22.1498 55.7753 22.2832 55.7646 22.4325H49.5886C49.642 23.2005 49.8926 23.7872 50.3406 24.1925C50.7993 24.5872 51.3273 24.7845 51.9246 24.7845C52.4046 24.7845 52.8046 24.6778 53.1246 24.4645C53.4553 24.2405 53.7006 23.9418 53.8606 23.5685H55.5566C55.3433 24.3152 54.9166 24.9392 54.2766 25.4405C53.6473 25.9418 52.8633 26.1925 51.9246 26.1925ZM51.9246 19.2645C51.3593 19.2645 50.858 19.4352 50.4206 19.7765C49.9833 20.1072 49.7166 20.6085 49.6206 21.2805H54.1006C54.0686 20.6618 53.85 20.1712 53.4446 19.8085C53.0393 19.4458 52.5326 19.2645 51.9246 19.2645ZM61.5876 26.0005V18.0645H63.0916L63.2356 19.1845C63.4916 18.7792 63.8276 18.4592 64.2436 18.2245C64.6703 17.9898 65.161 17.8725 65.7156 17.8725C66.9743 17.8725 67.849 18.3685 68.3396 19.3605C68.6276 18.9018 69.0116 18.5392 69.4916 18.2725C69.9823 18.0058 70.5103 17.8725 71.0756 17.8725C72.0676 17.8725 72.8463 18.1712 73.4116 18.7685C73.977 19.3658 74.2596 20.2565 74.2596 21.4405V26.0005H72.5636V21.6165C72.5636 20.0805 71.977 19.3125 70.8036 19.3125C70.2063 19.3125 69.7156 19.5365 69.3316 19.9845C68.9583 20.4325 68.7716 21.0725 68.7716 21.9045V26.0005H67.0756V21.6165C67.0756 20.0805 66.4836 19.3125 65.2996 19.3125C64.713 19.3125 64.2276 19.5365 63.8436 19.9845C63.4703 20.4325 63.2836 21.0725 63.2836 21.9045V26.0005H61.5876ZM79.9559 26.1925C79.1985 26.1925 78.5159 26.0218 77.9079 25.6805C77.3105 25.3285 76.8359 24.8432 76.4839 24.2245C76.1319 23.5952 75.9559 22.8645 75.9559 22.0325C75.9559 21.2005 76.1319 20.4752 76.4839 19.8565C76.8465 19.2272 77.3319 18.7418 77.9399 18.4005C78.5479 18.0485 79.2252 17.8725 79.9719 17.8725C80.7292 17.8725 81.4065 18.0485 82.0039 18.4005C82.6119 18.7418 83.0919 19.2272 83.4439 19.8565C83.8065 20.4752 83.9879 21.2005 83.9879 22.0325C83.9879 22.8645 83.8065 23.5952 83.4439 24.2245C83.0919 24.8432 82.6119 25.3285 82.0039 25.6805C81.3959 26.0218 80.7132 26.1925 79.9559 26.1925ZM79.9559 24.7365C80.3612 24.7365 80.7345 24.6352 81.0759 24.4325C81.4279 24.2298 81.7105 23.9312 81.9239 23.5365C82.1372 23.1312 82.2439 22.6298 82.2439 22.0325C82.2439 21.4352 82.1372 20.9392 81.9239 20.5445C81.7212 20.1392 81.4439 19.8352 81.0919 19.6325C80.7505 19.4298 80.3772 19.3285 79.9719 19.3285C79.5665 19.3285 79.1879 19.4298 78.8359 19.6325C78.4945 19.8352 78.2172 20.1392 78.0039 20.5445C77.7905 20.9392 77.6839 21.4352 77.6839 22.0325C77.6839 22.6298 77.7905 23.1312 78.0039 23.5365C78.2172 23.9312 78.4945 24.2298 78.8359 24.4325C79.1772 24.6352 79.5505 24.7365 79.9559 24.7365ZM85.822 26.0005V18.0645H87.342L87.486 19.5685C87.7633 19.0458 88.1473 18.6352 88.638 18.3365C89.1393 18.0272 89.742 17.8725 90.446 17.8725V19.6485H89.982C89.5127 19.6485 89.0913 19.7285 88.718 19.8885C88.3553 20.0378 88.062 20.2992 87.838 20.6725C87.6247 21.0352 87.518 21.5418 87.518 22.1925V26.0005H85.822ZM95.3934 26.1925C94.6147 26.1925 93.9214 26.0218 93.3134 25.6805C92.716 25.3285 92.2467 24.8432 91.9054 24.2245C91.564 23.6058 91.3934 22.8858 91.3934 22.0645C91.3934 21.2325 91.5587 20.5018 91.8894 19.8725C92.2307 19.2432 92.7 18.7525 93.2974 18.4005C93.9054 18.0485 94.6094 17.8725 95.4094 17.8725C96.188 17.8725 96.8654 18.0485 97.4414 18.4005C98.0174 18.7418 98.4654 19.2005 98.7854 19.7765C99.1054 20.3525 99.2654 20.9872 99.2654 21.6805C99.2654 21.7872 99.26 21.9045 99.2494 22.0325C99.2494 22.1498 99.244 22.2832 99.2334 22.4325H93.0574C93.1107 23.2005 93.3614 23.7872 93.8094 24.1925C94.268 24.5872 94.796 24.7845 95.3934 24.7845C95.8734 24.7845 96.2734 24.6778 96.5934 24.4645C96.924 24.2405 97.1694 23.9418 97.3294 23.5685H99.0254C98.812 24.3152 98.3854 24.9392 97.7454 25.4405C97.116 25.9418 96.332 26.1925 95.3934 26.1925ZM95.3934 19.2645C94.828 19.2645 94.3267 19.4352 93.8894 19.7765C93.452 20.1072 93.1854 20.6085 93.0894 21.2805H97.5694C97.5374 20.6618 97.3187 20.1712 96.9134 19.8085C96.508 19.4458 96.0014 19.2645 95.3934 19.2645Z" fill="#3183FF"/>
<path d="M114.849 21.8474C114.849 22.0267 114.78 22.2059 114.644 22.3425L110.344 26.6423C110.07 26.9158 109.627 26.9158 109.353 26.6423C109.08 26.3689 109.08 25.9255 109.353 25.6519L113.158 21.8474L109.354 18.0429C109.08 17.7694 109.08 17.3261 109.354 17.0527C109.627 16.779 110.071 16.779 110.344 17.0527L114.644 21.3524C114.78 21.4891 114.849 21.6683 114.849 21.8474Z" fill="#4F96FF"/>
</svg>
