<svg width="364" height="16" viewBox="0 0 364 16" fill="none" xmlns="http://www.w3.org/2000/svg">
<path d="M0.184 12V0.799999H1.528V5.744H7.336V0.799999H8.68V12H7.336V6.848H1.528V12H0.184ZM14.5794 12.192C13.8327 12.192 13.1607 12.0213 12.5634 11.68C11.966 11.3387 11.4914 10.8587 11.1394 10.24C10.798 9.61067 10.6274 8.87467 10.6274 8.032C10.6274 7.18933 10.8034 6.45867 11.1554 5.84C11.5074 5.21067 11.982 4.72533 12.5794 4.384C13.1874 4.04267 13.8647 3.872 14.6114 3.872C15.358 3.872 16.03 4.04267 16.6274 4.384C17.2247 4.72533 17.694 5.21067 18.0354 5.84C18.3874 6.45867 18.5634 7.18933 18.5634 8.032C18.5634 8.87467 18.3874 9.61067 18.0354 10.24C17.6834 10.8587 17.2034 11.3387 16.5954 11.68C15.998 12.0213 15.326 12.192 14.5794 12.192ZM14.5794 11.04C15.038 11.04 15.4647 10.928 15.8594 10.704C16.254 10.48 16.574 10.144 16.8194 9.696C17.0647 9.248 17.1874 8.69333 17.1874 8.032C17.1874 7.37067 17.0647 6.816 16.8194 6.368C16.5847 5.92 16.27 5.584 15.8754 5.36C15.4807 5.136 15.0594 5.024 14.6114 5.024C14.1527 5.024 13.726 5.136 13.3314 5.36C12.9367 5.584 12.6167 5.92 12.3714 6.368C12.126 6.816 12.0034 7.37067 12.0034 8.032C12.0034 8.69333 12.126 9.248 12.3714 9.696C12.6167 10.144 12.9314 10.48 13.3154 10.704C13.71 10.928 14.1314 11.04 14.5794 11.04ZM20.4321 12V4.064H21.6481L21.7441 5.216C22.0001 4.78933 22.3415 4.45867 22.7681 4.224C23.1948 3.98933 23.6748 3.872 24.2081 3.872C24.8375 3.872 25.3761 4 25.8241 4.256C26.2828 4.512 26.6348 4.90133 26.8801 5.424C27.1575 4.944 27.5361 4.56533 28.0161 4.288C28.5068 4.01067 29.0348 3.872 29.6001 3.872C30.5495 3.872 31.3068 4.16 31.8721 4.736C32.4375 5.30133 32.7201 6.176 32.7201 7.36V12H31.3921V7.504C31.3921 6.68267 31.2268 6.064 30.8961 5.648C30.5655 5.232 30.0908 5.024 29.4721 5.024C28.8321 5.024 28.2988 5.27467 27.8721 5.776C27.4561 6.26667 27.2481 6.97067 27.2481 7.888V12H25.9041V7.504C25.9041 6.68267 25.7388 6.064 25.4081 5.648C25.0775 5.232 24.6028 5.024 23.9841 5.024C23.3548 5.024 22.8268 5.27467 22.4001 5.776C21.9841 6.26667 21.7761 6.97067 21.7761 7.888V12H20.4321ZM38.3126 12.192C37.5553 12.192 36.8833 12.0213 36.2966 11.68C35.71 11.328 35.246 10.8427 34.9046 10.224C34.574 9.60533 34.4086 8.87467 34.4086 8.032C34.4086 7.2 34.574 6.47467 34.9046 5.856C35.2353 5.22667 35.694 4.74133 36.2806 4.4C36.878 4.048 37.566 3.872 38.3446 3.872C39.1126 3.872 39.774 4.048 40.3286 4.4C40.894 4.74133 41.326 5.19467 41.6246 5.76C41.9233 6.32533 42.0726 6.93333 42.0726 7.584C42.0726 7.70133 42.0673 7.81867 42.0566 7.936C42.0566 8.05333 42.0566 8.18667 42.0566 8.336H35.7366C35.7686 8.944 35.9073 9.45067 36.1526 9.856C36.4086 10.2507 36.7233 10.5493 37.0966 10.752C37.4806 10.9547 37.886 11.056 38.3126 11.056C38.8673 11.056 39.3313 10.928 39.7046 10.672C40.078 10.416 40.35 10.0693 40.5206 9.632H41.8486C41.6353 10.368 41.2246 10.9813 40.6166 11.472C40.0193 11.952 39.2513 12.192 38.3126 12.192ZM38.3126 5.008C37.6726 5.008 37.102 5.20533 36.6006 5.6C36.11 5.984 35.8273 6.54933 35.7526 7.296H40.7446C40.7126 6.58133 40.4673 6.02133 40.0086 5.616C39.55 5.21067 38.9846 5.008 38.3126 5.008ZM81.3394 12L85.4674 0.799999H86.8914L91.0034 12H89.5794L88.5554 9.12H83.7874L82.7474 12H81.3394ZM84.1874 8.032H88.1554L86.1714 2.496L84.1874 8.032ZM95.7509 12.192C94.9615 12.192 94.2682 12.0107 93.6709 11.648C93.0842 11.2853 92.6255 10.7893 92.2949 10.16C91.9749 9.53067 91.8149 8.816 91.8149 8.016C91.8149 7.216 91.9802 6.50667 92.3109 5.888C92.6415 5.25867 93.1002 4.768 93.6869 4.416C94.2735 4.05333 94.9669 3.872 95.7669 3.872C96.4175 3.872 96.9935 4.00533 97.4949 4.272C97.9962 4.53867 98.3855 4.912 98.6629 5.392V0.48H100.007V12H98.7909L98.6629 10.688C98.4069 11.072 98.0389 11.4187 97.5589 11.728C97.0789 12.0373 96.4762 12.192 95.7509 12.192ZM95.8949 11.024C96.4282 11.024 96.8975 10.9013 97.3029 10.656C97.7189 10.4 98.0389 10.048 98.2629 9.6C98.4975 9.152 98.6149 8.62933 98.6149 8.032C98.6149 7.43467 98.4975 6.912 98.2629 6.464C98.0389 6.016 97.7189 5.66933 97.3029 5.424C96.8975 5.168 96.4282 5.04 95.8949 5.04C95.3722 5.04 94.9029 5.168 94.4869 5.424C94.0815 5.66933 93.7615 6.016 93.5269 6.464C93.3029 6.912 93.1909 7.43467 93.1909 8.032C93.1909 8.62933 93.3029 9.152 93.5269 9.6C93.7615 10.048 94.0815 10.4 94.4869 10.656C94.9029 10.9013 95.3722 11.024 95.8949 11.024ZM104.486 12L101.478 4.064H102.886L105.27 10.704L107.67 4.064H109.046L106.038 12H104.486ZM113.703 12.192C112.946 12.192 112.274 12.0213 111.687 11.68C111.101 11.328 110.637 10.8427 110.295 10.224C109.965 9.60533 109.799 8.87467 109.799 8.032C109.799 7.2 109.965 6.47467 110.295 5.856C110.626 5.22667 111.085 4.74133 111.671 4.4C112.269 4.048 112.957 3.872 113.735 3.872C114.503 3.872 115.165 4.048 115.719 4.4C116.285 4.74133 116.717 5.19467 117.015 5.76C117.314 6.32533 117.463 6.93333 117.463 7.584C117.463 7.70133 117.458 7.81867 117.447 7.936C117.447 8.05333 117.447 8.18667 117.447 8.336H111.127C111.159 8.944 111.298 9.45067 111.543 9.856C111.799 10.2507 112.114 10.5493 112.487 10.752C112.871 10.9547 113.277 11.056 113.703 11.056C114.258 11.056 114.722 10.928 115.095 10.672C115.469 10.416 115.741 10.0693 115.911 9.632H117.239C117.026 10.368 116.615 10.9813 116.007 11.472C115.41 11.952 114.642 12.192 113.703 12.192ZM113.703 5.008C113.063 5.008 112.493 5.20533 111.991 5.6C111.501 5.984 111.218 6.54933 111.143 7.296H116.135C116.103 6.58133 115.858 6.02133 115.399 5.616C114.941 5.21067 114.375 5.008 113.703 5.008ZM119.245 12V4.064H120.461L120.573 5.584C120.818 5.06133 121.191 4.64533 121.693 4.336C122.194 4.02667 122.813 3.872 123.549 3.872V5.28H123.181C122.711 5.28 122.279 5.36533 121.885 5.536C121.49 5.696 121.175 5.97333 120.941 6.368C120.706 6.76267 120.589 7.30667 120.589 8V12H119.245ZM128.097 12.192C127.148 12.192 126.358 11.952 125.729 11.472C125.1 10.992 124.732 10.3413 124.625 9.52H126.001C126.086 9.936 126.305 10.2987 126.657 10.608C127.02 10.9067 127.505 11.056 128.113 11.056C128.678 11.056 129.094 10.9387 129.361 10.704C129.628 10.4587 129.761 10.1707 129.761 9.84C129.761 9.36 129.585 9.04 129.233 8.88C128.892 8.72 128.406 8.576 127.777 8.448C127.35 8.36267 126.924 8.24 126.497 8.08C126.07 7.92 125.713 7.696 125.425 7.408C125.137 7.10933 124.993 6.72 124.993 6.24C124.993 5.54667 125.249 4.98133 125.761 4.544C126.284 4.096 126.988 3.872 127.873 3.872C128.716 3.872 129.404 4.08533 129.937 4.512C130.481 4.928 130.796 5.52533 130.881 6.304H129.553C129.5 5.89867 129.324 5.584 129.025 5.36C128.737 5.12533 128.348 5.008 127.857 5.008C127.377 5.008 127.004 5.10933 126.737 5.312C126.481 5.51467 126.353 5.78133 126.353 6.112C126.353 6.432 126.518 6.68267 126.849 6.864C127.19 7.04533 127.649 7.2 128.225 7.328C128.716 7.43467 129.18 7.568 129.617 7.728C130.065 7.87733 130.428 8.10667 130.705 8.416C130.993 8.71467 131.137 9.152 131.137 9.728C131.148 10.4427 130.876 11.0347 130.321 11.504C129.777 11.9627 129.036 12.192 128.097 12.192ZM133.873 2.304C133.606 2.304 133.382 2.21867 133.201 2.048C133.03 1.86667 132.945 1.64267 132.945 1.376C132.945 1.12 133.03 0.906666 133.201 0.735999C133.382 0.565333 133.606 0.48 133.873 0.48C134.129 0.48 134.348 0.565333 134.529 0.735999C134.71 0.906666 134.801 1.12 134.801 1.376C134.801 1.64267 134.71 1.86667 134.529 2.048C134.348 2.21867 134.129 2.304 133.873 2.304ZM133.201 12V4.064H134.545V12H133.201ZM140.021 12C139.296 12 138.725 11.824 138.309 11.472C137.893 11.12 137.685 10.4853 137.685 9.568V5.2H136.309V4.064H137.685L137.861 2.16H139.029V4.064H141.365V5.2H139.029V9.568C139.029 10.0693 139.131 10.4107 139.333 10.592C139.536 10.7627 139.893 10.848 140.405 10.848H141.237V12H140.021ZM146.422 12.192C145.665 12.192 144.993 12.0213 144.406 11.68C143.819 11.328 143.355 10.8427 143.014 10.224C142.683 9.60533 142.518 8.87467 142.518 8.032C142.518 7.2 142.683 6.47467 143.014 5.856C143.345 5.22667 143.803 4.74133 144.39 4.4C144.987 4.048 145.675 3.872 146.454 3.872C147.222 3.872 147.883 4.048 148.438 4.4C149.003 4.74133 149.435 5.19467 149.734 5.76C150.033 6.32533 150.182 6.93333 150.182 7.584C150.182 7.70133 150.177 7.81867 150.166 7.936C150.166 8.05333 150.166 8.18667 150.166 8.336H143.846C143.878 8.944 144.017 9.45067 144.262 9.856C144.518 10.2507 144.833 10.5493 145.206 10.752C145.59 10.9547 145.995 11.056 146.422 11.056C146.977 11.056 147.441 10.928 147.814 10.672C148.187 10.416 148.459 10.0693 148.63 9.632H149.958C149.745 10.368 149.334 10.9813 148.726 11.472C148.129 11.952 147.361 12.192 146.422 12.192ZM146.422 5.008C145.782 5.008 145.211 5.20533 144.71 5.6C144.219 5.984 143.937 6.54933 143.862 7.296H148.854C148.822 6.58133 148.577 6.02133 148.118 5.616C147.659 5.21067 147.094 5.008 146.422 5.008ZM155.797 4H163.828C164.391 4 164.672 4.6875 164.266 5.09375L160.266 9.09375C160.016 9.34375 159.609 9.34375 159.359 9.09375L155.359 5.09375C154.953 4.6875 155.234 4 155.797 4ZM205.299 12.192C204.478 12.192 203.763 12.0427 203.155 11.744C202.547 11.4453 202.078 11.0293 201.747 10.496C201.416 9.96267 201.251 9.344 201.251 8.64H202.659C202.659 9.07733 202.76 9.48267 202.963 9.856C203.166 10.2187 203.459 10.512 203.843 10.736C204.238 10.9493 204.723 11.056 205.299 11.056C206.056 11.056 206.643 10.8747 207.059 10.512C207.475 10.1493 207.683 9.696 207.683 9.152C207.683 8.704 207.587 8.34667 207.395 8.08C207.203 7.80267 206.942 7.57867 206.611 7.408C206.291 7.23733 205.918 7.088 205.491 6.96C205.075 6.832 204.638 6.688 204.179 6.528C203.315 6.22933 202.675 5.86133 202.259 5.424C201.843 4.976 201.635 4.39467 201.635 3.68C201.624 3.08267 201.763 2.55467 202.051 2.096C202.339 1.62667 202.744 1.264 203.267 1.008C203.8 0.741333 204.43 0.608 205.155 0.608C205.87 0.608 206.488 0.741333 207.011 1.008C207.544 1.27467 207.955 1.64267 208.243 2.112C208.542 2.58133 208.696 3.11467 208.707 3.712H207.299C207.299 3.40267 207.219 3.09867 207.059 2.8C206.899 2.49067 206.654 2.24 206.323 2.048C206.003 1.856 205.598 1.76 205.107 1.76C204.499 1.74933 203.998 1.904 203.603 2.224C203.219 2.544 203.027 2.98667 203.027 3.552C203.027 4.032 203.16 4.4 203.427 4.656C203.704 4.912 204.088 5.12533 204.579 5.296C205.07 5.456 205.635 5.64267 206.275 5.856C206.808 6.048 207.288 6.272 207.715 6.528C208.142 6.784 208.472 7.11467 208.707 7.52C208.952 7.92533 209.075 8.44267 209.075 9.072C209.075 9.60533 208.936 10.112 208.659 10.592C208.382 11.0613 207.96 11.4453 207.395 11.744C206.84 12.0427 206.142 12.192 205.299 12.192ZM213.797 12.192C212.858 12.192 212.112 11.9093 211.557 11.344C211.002 10.768 210.725 9.888 210.725 8.704V4.064H212.069V8.56C212.069 10.2133 212.746 11.04 214.101 11.04C214.794 11.04 215.365 10.7947 215.813 10.304C216.272 9.80267 216.501 9.09333 216.501 8.176V4.064H217.845V12H216.629L216.533 10.576C216.288 11.0773 215.92 11.472 215.429 11.76C214.949 12.048 214.405 12.192 213.797 12.192ZM220.057 15.52V4.064H221.273L221.401 5.376C221.657 4.992 222.02 4.64533 222.489 4.336C222.969 4.02667 223.577 3.872 224.313 3.872C225.102 3.872 225.79 4.05333 226.377 4.416C226.964 4.77867 227.417 5.27467 227.737 5.904C228.068 6.53333 228.233 7.248 228.233 8.048C228.233 8.848 228.068 9.56267 227.737 10.192C227.417 10.8107 226.958 11.3013 226.361 11.664C225.774 12.016 225.086 12.192 224.297 12.192C223.646 12.192 223.065 12.0587 222.553 11.792C222.052 11.5253 221.668 11.152 221.401 10.672V15.52H220.057ZM224.153 11.024C224.686 11.024 225.156 10.9013 225.561 10.656C225.966 10.4 226.286 10.048 226.521 9.6C226.756 9.152 226.873 8.62933 226.873 8.032C226.873 7.43467 226.756 6.912 226.521 6.464C226.286 6.016 225.966 5.66933 225.561 5.424C225.156 5.168 224.686 5.04 224.153 5.04C223.62 5.04 223.15 5.168 222.745 5.424C222.34 5.66933 222.02 6.016 221.785 6.464C221.55 6.912 221.433 7.43467 221.433 8.032C221.433 8.62933 221.55 9.152 221.785 9.6C222.02 10.048 222.34 10.4 222.745 10.656C223.15 10.9013 223.62 11.024 224.153 11.024ZM230.104 15.52V4.064H231.32L231.448 5.376C231.704 4.992 232.067 4.64533 232.536 4.336C233.016 4.02667 233.624 3.872 234.36 3.872C235.149 3.872 235.837 4.05333 236.424 4.416C237.011 4.77867 237.464 5.27467 237.784 5.904C238.115 6.53333 238.28 7.248 238.28 8.048C238.28 8.848 238.115 9.56267 237.784 10.192C237.464 10.8107 237.005 11.3013 236.408 11.664C235.821 12.016 235.133 12.192 234.344 12.192C233.693 12.192 233.112 12.0587 232.6 11.792C232.099 11.5253 231.715 11.152 231.448 10.672V15.52H230.104ZM234.2 11.024C234.733 11.024 235.203 10.9013 235.608 10.656C236.013 10.4 236.333 10.048 236.568 9.6C236.803 9.152 236.92 8.62933 236.92 8.032C236.92 7.43467 236.803 6.912 236.568 6.464C236.333 6.016 236.013 5.66933 235.608 5.424C235.203 5.168 234.733 5.04 234.2 5.04C233.667 5.04 233.197 5.168 232.792 5.424C232.387 5.66933 232.067 6.016 231.832 6.464C231.597 6.912 231.48 7.43467 231.48 8.032C231.48 8.62933 231.597 9.152 231.832 9.6C232.067 10.048 232.387 10.4 232.792 10.656C233.197 10.9013 233.667 11.024 234.2 11.024ZM243.767 12.192C243.02 12.192 242.348 12.0213 241.751 11.68C241.154 11.3387 240.679 10.8587 240.327 10.24C239.986 9.61067 239.815 8.87467 239.815 8.032C239.815 7.18933 239.991 6.45867 240.343 5.84C240.695 5.21067 241.17 4.72533 241.767 4.384C242.375 4.04267 243.052 3.872 243.799 3.872C244.546 3.872 245.218 4.04267 245.815 4.384C246.412 4.72533 246.882 5.21067 247.223 5.84C247.575 6.45867 247.751 7.18933 247.751 8.032C247.751 8.87467 247.575 9.61067 247.223 10.24C246.871 10.8587 246.391 11.3387 245.783 11.68C245.186 12.0213 244.514 12.192 243.767 12.192ZM243.767 11.04C244.226 11.04 244.652 10.928 245.047 10.704C245.442 10.48 245.762 10.144 246.007 9.696C246.252 9.248 246.375 8.69333 246.375 8.032C246.375 7.37067 246.252 6.816 246.007 6.368C245.772 5.92 245.458 5.584 245.063 5.36C244.668 5.136 244.247 5.024 243.799 5.024C243.34 5.024 242.914 5.136 242.519 5.36C242.124 5.584 241.804 5.92 241.559 6.368C241.314 6.816 241.191 7.37067 241.191 8.032C241.191 8.69333 241.314 9.248 241.559 9.696C241.804 10.144 242.119 10.48 242.503 10.704C242.898 10.928 243.319 11.04 243.767 11.04ZM249.62 12V4.064H250.836L250.948 5.584C251.193 5.06133 251.566 4.64533 252.068 4.336C252.569 4.02667 253.188 3.872 253.924 3.872V5.28H253.556C253.086 5.28 252.654 5.36533 252.26 5.536C251.865 5.696 251.55 5.97333 251.316 6.368C251.081 6.76267 250.964 7.30667 250.964 8V12H249.62ZM258.568 12C257.843 12 257.272 11.824 256.856 11.472C256.44 11.12 256.232 10.4853 256.232 9.568V5.2H254.856V4.064H256.232L256.408 2.16H257.576V4.064H259.912V5.2H257.576V9.568C257.576 10.0693 257.677 10.4107 257.88 10.592C258.083 10.7627 258.44 10.848 258.952 10.848H259.784V12H258.568ZM264.66 12.192C263.71 12.192 262.921 11.952 262.292 11.472C261.662 10.992 261.294 10.3413 261.188 9.52H262.564C262.649 9.936 262.868 10.2987 263.22 10.608C263.582 10.9067 264.068 11.056 264.676 11.056C265.241 11.056 265.657 10.9387 265.924 10.704C266.19 10.4587 266.324 10.1707 266.324 9.84C266.324 9.36 266.148 9.04 265.796 8.88C265.454 8.72 264.969 8.576 264.34 8.448C263.913 8.36267 263.486 8.24 263.06 8.08C262.633 7.92 262.276 7.696 261.988 7.408C261.7 7.10933 261.556 6.72 261.556 6.24C261.556 5.54667 261.812 4.98133 262.324 4.544C262.846 4.096 263.55 3.872 264.436 3.872C265.278 3.872 265.966 4.08533 266.5 4.512C267.044 4.928 267.358 5.52533 267.444 6.304H266.116C266.062 5.89867 265.886 5.584 265.588 5.36C265.3 5.12533 264.91 5.008 264.42 5.008C263.94 5.008 263.566 5.10933 263.3 5.312C263.044 5.51467 262.916 5.78133 262.916 6.112C262.916 6.432 263.081 6.68267 263.412 6.864C263.753 7.04533 264.212 7.2 264.788 7.328C265.278 7.43467 265.742 7.568 266.18 7.728C266.628 7.87733 266.99 8.10667 267.268 8.416C267.556 8.71467 267.7 9.152 267.7 9.728C267.71 10.4427 267.438 11.0347 266.884 11.504C266.34 11.9627 265.598 12.192 264.66 12.192ZM273.453 4H281.484C282.047 4 282.328 4.6875 281.922 5.09375L277.922 9.09375C277.672 9.34375 277.266 9.34375 277.016 9.09375L273.016 5.09375C272.609 4.6875 272.891 4 273.453 4ZM318.683 12L322.811 0.799999H324.235L328.347 12H326.923L325.899 9.12H321.131L320.091 12H318.683ZM321.531 8.032H325.499L323.515 2.496L321.531 8.032ZM334.172 12.192C333.521 12.192 332.94 12.0587 332.428 11.792C331.927 11.5253 331.543 11.152 331.276 10.672L331.148 12H329.932V0.48H331.276V5.376C331.532 4.992 331.895 4.64533 332.364 4.336C332.844 4.02667 333.452 3.872 334.188 3.872C334.977 3.872 335.665 4.05333 336.252 4.416C336.839 4.77867 337.292 5.27467 337.612 5.904C337.943 6.53333 338.108 7.248 338.108 8.048C338.108 8.848 337.943 9.56267 337.612 10.192C337.292 10.8107 336.833 11.3013 336.236 11.664C335.649 12.016 334.961 12.192 334.172 12.192ZM334.028 11.024C334.561 11.024 335.031 10.9013 335.436 10.656C335.841 10.4 336.161 10.048 336.396 9.6C336.631 9.152 336.748 8.62933 336.748 8.032C336.748 7.43467 336.631 6.912 336.396 6.464C336.161 6.016 335.841 5.66933 335.436 5.424C335.031 5.168 334.561 5.04 334.028 5.04C333.495 5.04 333.025 5.168 332.62 5.424C332.215 5.66933 331.895 6.016 331.66 6.464C331.425 6.912 331.308 7.43467 331.308 8.032C331.308 8.62933 331.425 9.152 331.66 9.6C331.895 10.048 332.215 10.4 332.62 10.656C333.025 10.9013 333.495 11.024 334.028 11.024ZM343.595 12.192C342.848 12.192 342.176 12.0213 341.579 11.68C340.982 11.3387 340.507 10.8587 340.155 10.24C339.814 9.61067 339.643 8.87467 339.643 8.032C339.643 7.18933 339.819 6.45867 340.171 5.84C340.523 5.21067 340.998 4.72533 341.595 4.384C342.203 4.04267 342.88 3.872 343.627 3.872C344.374 3.872 345.046 4.04267 345.643 4.384C346.24 4.72533 346.71 5.21067 347.051 5.84C347.403 6.45867 347.579 7.18933 347.579 8.032C347.579 8.87467 347.403 9.61067 347.051 10.24C346.699 10.8587 346.219 11.3387 345.611 11.68C345.014 12.0213 344.342 12.192 343.595 12.192ZM343.595 11.04C344.054 11.04 344.48 10.928 344.875 10.704C345.27 10.48 345.59 10.144 345.835 9.696C346.08 9.248 346.203 8.69333 346.203 8.032C346.203 7.37067 346.08 6.816 345.835 6.368C345.6 5.92 345.286 5.584 344.891 5.36C344.496 5.136 344.075 5.024 343.627 5.024C343.168 5.024 342.742 5.136 342.347 5.36C341.952 5.584 341.632 5.92 341.387 6.368C341.142 6.816 341.019 7.37067 341.019 8.032C341.019 8.69333 341.142 9.248 341.387 9.696C341.632 10.144 341.947 10.48 342.331 10.704C342.726 10.928 343.147 11.04 343.595 11.04ZM352.344 12.192C351.405 12.192 350.658 11.9093 350.104 11.344C349.549 10.768 349.272 9.888 349.272 8.704V4.064H350.616V8.56C350.616 10.2133 351.293 11.04 352.648 11.04C353.341 11.04 353.912 10.7947 354.36 10.304C354.818 9.80267 355.048 9.09333 355.048 8.176V4.064H356.392V12H355.176L355.08 10.576C354.834 11.0773 354.466 11.472 353.976 11.76C353.496 12.048 352.952 12.192 352.344 12.192ZM361.74 12C361.015 12 360.444 11.824 360.028 11.472C359.612 11.12 359.404 10.4853 359.404 9.568V5.2H358.028V4.064H359.404L359.58 2.16H360.748V4.064H363.084V5.2H360.748V9.568C360.748 10.0693 360.849 10.4107 361.052 10.592C361.255 10.7627 361.612 10.848 362.124 10.848H362.956V12H361.74Z" fill="#02073E"/>
</svg>
