<svg width="174" height="92" viewBox="0 0 174 92" fill="none" xmlns="http://www.w3.org/2000/svg">
<path d="M171.398 13.1755C167.498 10.9755 159.798 20.8755 157.298 24.6755C157.398 18.8755 157.198 9.27548 153.498 4.77548C151.898 2.87548 149.698 2.07548 148.198 3.77548C146.898 5.17548 146.898 7.17548 147.198 8.97548C148.198 15.7755 150.198 21.8755 152.398 28.3755C146.398 27.1755 139.898 32.8755 135.198 27.5755C137.398 27.2755 140.198 26.3755 142.098 24.9755C143.398 23.9755 144.198 22.5755 144.198 20.6755C144.198 18.6755 142.298 16.7755 140.598 16.2755C138.198 15.5755 135.598 16.0755 133.898 17.9755C132.898 19.1755 132.398 20.7755 132.098 22.2755C131.898 23.1755 131.798 24.4755 131.998 25.3755C130.498 25.4755 128.398 25.5755 126.698 26.8755C124.798 28.2755 124.198 31.1755 124.598 31.9755C125.298 33.5755 127.498 32.5755 126.898 31.0755C127.298 27.5755 129.598 27.8755 133.098 27.7755C138.798 35.9755 148.198 29.1755 152.398 31.0755C137.598 42.9755 113.298 51.9755 107.298 53.6755C105.698 54.0755 103.998 54.4755 102.398 54.7755C97.9985 55.6755 93.5985 56.0755 89.0985 56.1755C84.3985 56.2755 79.7985 56.0755 75.0985 55.3755C70.2985 54.6755 65.4985 53.6755 60.8985 52.1755C56.0985 50.6755 51.3985 48.7755 46.8985 46.3755C42.1985 43.9755 37.6985 41.0755 33.4985 37.8755C31.2985 36.1755 29.1985 34.3755 27.1985 32.4755C26.1985 31.4755 25.1985 30.4755 24.1985 29.4755C23.6985 28.9755 23.1985 28.4755 22.6985 27.8755C22.1985 27.3755 21.6985 26.7755 21.4985 26.0755C21.4985 25.8755 21.3985 25.6755 21.5985 25.4755C21.7985 25.1755 22.4985 25.4755 22.6985 25.5755C22.7985 25.6755 22.9985 25.7755 23.0985 25.7755C23.3985 25.9755 23.6985 26.0755 24.0985 26.1755C24.6985 26.4755 25.3985 26.6755 25.9985 26.7755C27.2985 27.0755 28.6985 27.2755 29.9985 27.1755C33.5985 27.0755 37.5985 25.6755 39.9985 22.8755C42.4985 19.8755 41.6985 16.0755 39.2985 13.2755C37.8985 11.6755 35.4985 10.8755 32.8985 11.9755C29.5985 13.3755 29.4985 17.2755 31.5985 17.7755C33.2985 18.2755 33.5985 16.0755 32.3985 15.6755C31.8985 14.3755 34.0985 12.4755 36.4985 12.9755C40.9985 14.2755 43.2985 24.1755 30.3985 24.8755C26.1985 24.8755 25.2985 24.2755 22.7985 22.9755C25.3985 17.4755 27.9985 8.47548 24.6985 2.97548C22.8985 -0.0245235 20.1985 0.475477 18.7985 2.57548C16.3985 6.27548 16.5985 15.0755 16.3985 19.8755C13.8985 17.7755 6.59849 11.8755 3.39849 11.4755C-1.30151 10.8755 -2.40151 16.7755 8.49849 22.6755C10.2985 23.6755 16.0985 25.1755 18.5985 26.4755C18.3985 26.8755 18.1985 27.1755 17.9985 27.5755C16.1985 30.8755 15.1985 33.8755 12.9985 35.3755C10.9985 36.3755 8.49849 36.8755 6.39849 35.7755C1.99849 33.0755 4.69849 29.2755 6.39849 30.0755C8.09849 31.1755 7.79849 34.1755 9.59849 33.4755C10.5985 33.0755 10.2985 32.0755 9.79849 31.1755C9.09849 29.7755 7.89849 28.2755 6.39849 28.0755C3.09849 27.6755 0.0984893 32.5755 4.09849 36.4755C5.09849 37.4755 6.09849 37.9755 7.09849 38.2755C9.19849 39.0755 11.3985 39.0755 13.8985 38.2755C17.3985 37.1755 18.9985 32.7755 20.4985 29.5755C22.9985 32.7755 26.1985 35.6755 29.3985 38.1755C28.3985 40.6755 26.7985 45.8755 23.2985 53.3755C22.2985 55.4755 18.8985 62.0755 17.3985 66.1755C15.4985 71.1755 21.6985 67.3755 29.4985 65.9755C29.9985 65.8755 34.0985 64.9755 34.4985 65.1755C34.9985 65.5755 37.3985 71.7755 37.5985 72.3755C40.1985 78.8755 39.8985 80.4755 41.1985 80.9755C43.9985 82.0755 44.7985 75.3755 56.7985 55.1755C56.9985 54.7755 57.1985 54.3755 57.4985 53.9755C63.7985 56.3755 66.6985 56.7755 75.4985 58.0755C74.7985 58.9755 77.7985 85.5755 78.3985 89.9755C78.5985 91.1755 79.2985 91.6755 79.9985 91.5755C81.5985 91.3755 83.6985 86.1755 89.9985 79.0755C95.6985 83.1755 100.898 90.2755 101.798 90.8755C102.898 91.6755 104.298 91.4755 104.598 89.3755C104.998 86.7755 102.998 62.1755 103.498 58.0755C103.498 57.6755 103.398 57.2755 103.198 56.9755C108.998 55.6755 111.998 54.6755 119.598 51.4755C119.798 52.2755 131.398 78.3755 132.998 79.2755C133.598 79.5755 134.398 79.3755 134.898 78.3755C135.998 76.1755 137.498 63.1755 138.898 61.3755C139.898 61.4755 146.698 64.7755 149.998 66.5755C154.698 69.3755 155.798 70.6755 157.298 69.9755C158.698 69.2755 158.398 67.5755 157.998 66.0755C156.398 60.5755 152.298 53.1755 148.498 43.0755C147.898 41.3755 147.298 39.7755 146.298 38.2755C149.198 36.3755 151.498 34.7755 154.098 32.6755C154.398 33.0755 154.798 33.8755 155.098 34.1755C156.398 36.7755 157.198 39.7755 160.098 43.4755C162.098 45.9755 166.498 48.1755 169.698 47.1755C174.198 45.7755 174.798 35.2755 170.298 33.8755C168.998 33.4755 167.598 33.9755 166.698 35.1755C164.098 38.8755 167.298 39.6755 167.898 38.1755C168.498 36.5755 168.398 35.8755 169.398 35.4755C169.998 35.3755 170.398 35.5755 170.798 35.9755C172.098 37.3755 172.098 40.2755 171.598 42.1755C171.198 43.4755 170.598 44.9755 169.298 45.3755C167.198 45.8755 164.598 44.3755 162.998 42.9755C160.998 40.8755 158.698 35.4755 157.498 33.1755C165.898 33.0755 177.598 16.6755 171.398 13.1755ZM133.798 25.1755C133.298 23.6755 134.098 19.6755 135.998 18.3755C139.798 16.2755 144.698 20.2755 139.798 23.4755C138.598 24.1755 136.398 24.9755 133.798 25.1755ZM2.09849 14.0755C2.09849 13.9755 2.09849 13.9755 2.09849 14.0755ZM8.79849 20.5755C6.79849 19.3755 2.39849 16.4755 2.09849 14.0755C2.59849 11.2755 12.9985 20.1755 16.8985 23.5755C11.9985 21.8755 11.3985 21.9755 8.79849 20.5755ZM23.2985 4.57548C24.4985 6.47548 24.5985 9.27548 24.4985 11.3755C24.3985 13.3755 23.7985 15.1755 23.1985 17.1755C22.5985 19.2755 21.6985 21.2755 20.5985 23.1755C20.4985 23.3755 20.2985 23.6755 19.9985 23.6755C19.7985 23.6755 19.6985 23.3755 19.5985 23.1755C19.3985 22.4755 19.2985 21.8755 19.1985 21.1755C18.9985 18.9755 19.2985 16.5755 19.3985 14.3755C19.4985 12.2755 19.6985 10.0755 19.9985 7.97548C20.1985 6.67548 20.3985 4.97548 21.1985 3.87548C21.9985 2.87548 22.8985 3.87548 23.2985 4.57548ZM42.2985 77.5755C41.6985 75.1755 37.9985 64.0755 35.6985 62.9755C33.0985 61.7755 20.3985 66.3755 19.5985 66.5755C27.6985 49.7755 25.6985 55.1755 31.3985 39.7755C44.4985 49.6755 46.5985 49.8755 54.9985 53.0755C53.5985 55.3755 43.2985 75.7755 42.2985 77.5755ZM102.098 87.2755C99.4985 83.9755 96.5985 80.9755 92.9985 77.9755C89.1985 74.7755 88.9985 76.0755 84.0985 82.6755C81.8985 85.5755 81.3985 86.5755 80.5985 87.8755C80.5985 87.6755 77.8985 58.5755 77.7985 58.4755C83.7985 59.1755 93.7985 58.9755 100.598 57.6755C99.6985 60.7755 102.098 83.3755 102.098 87.2755ZM155.098 66.1755C151.198 63.5755 141.298 58.1755 138.398 58.5755C134.698 59.0755 134.898 69.2755 133.398 76.5755C131.698 72.2755 121.998 50.8755 121.898 50.6755C128.598 47.8755 137.798 43.7755 143.898 39.8755C145.298 42.2755 154.298 62.5755 155.098 66.1755ZM152.598 6.77548C155.398 11.7755 154.998 22.2755 154.398 27.9755C145.198 1.17548 150.198 2.97548 152.598 6.77548ZM156.798 30.6755C158.098 26.6755 169.498 11.2755 170.998 15.5755C171.998 20.6755 162.598 30.9755 156.798 30.6755Z" fill="#EFE2DA"/>
</svg>
